#!OML:ASF E:\acrobat2\Project_11_07_03\Capture day 1\Session 1\Acrobat.ASF
:FULLY-SPECIFIED
:DEGREES
593
root 5.933 17.9375 12.3646 -0.282874 1.77377 1.62768
lowerback 4.35316 0.346191 2.37908
upperback -5.34951 0.3883 -3.84042
thorax -8.04175 -0.0850239 -5.4567
lowerneck -7.55803 -1.69784 -3.55313
upperneck -4.54346 -1.85697 9.19048
head 0.0067231 -0.828791 3.5598
rclavicle -1.49089e-015 -2.94201e-014
rhumerus 11.3762 -3.00025 25.0836
rradius 70.0442
rwrist 28.1714
rhand -29.3706 -25.5291
rfingers 7.12502
rthumb -2.7096 304.508
lclavicle -1.49089e-015 -2.94201e-014
lhumerus 24.0772 -39.5524 -19.8141
lradius 127.852
lwrist 26.8966
lhand -15.6625 -34.7218
lfingers 7.12502
lthumb 10.5257 -5.0053
rfemur -5.65763 -22.545 -3.15003
rtibia 60.0432
rfoot -3.91949 -12.6264
rtoes 9.70188
lfemur -8.62073 22.6137 18.1756
ltibia 54.8818
lfoot -334.755 7.57174
ltoes 47.861
594
root 5.95275 17.9612 12.4409 -0.190932 1.6943 1.62721
lowerback 4.62563 0.709969 2.85063
upperback -5.15469 0.927974 -3.78099
thorax -7.92508 0.16191 -5.7227
lowerneck -7.14619 -1.89841 -3.66782
upperneck -4.61102 -2.12028 8.97462
head -0.0698643 -0.9697 3.50128
rclavicle 1.0138e-014 -3.89618e-014
rhumerus 15.0352 -7.47085 25.3637
rradius 61.2319
rwrist 28.7525
rhand -28.7491 -27.8952
rfingers 7.12502
rthumb -2.10939 302.136
lclavicle 1.0138e-014 -3.89618e-014
lhumerus 23.9176 -36.3878 -21.2437
lradius 127.057
lwrist 27.441
lhand -16.0464 -34.3575
lfingers 7.12502
lthumb 10.1554 -4.62258
rfemur -6.36045 -23.1135 -3.62295
rtibia 60.4991
rfoot -5.38835 -13.7956
rtoes 9.56934
lfemur -9.76896 23.2003 17.6073
ltibia 56.1551
lfoot -335.619 5.6047
ltoes 47.7304
595
root 5.97803 17.9736 12.5123 -0.109256 1.55568 1.6463
lowerback 4.96186 1.08783 3.35251
upperback -4.98018 1.49524 -3.67389
thorax -7.85708 0.421506 -5.96209
lowerneck -6.76355 -2.14634 -3.61731
upperneck -4.46367 -2.47821 8.4001
head -0.074971 -1.15693 3.28402
rclavicle 1.49089e-014 -5.1684e-014
rhumerus 19.4683 -13.3645 24.1314
rradius 52.1
rwrist 30.8523
rhand -26.2373 -30.3358
rfingers 7.12502
rthumb 0.316534 299.685
lclavicle 1.49089e-014 -5.1684e-014
lhumerus 23.6208 -33.4822 -22.4736
lradius 126.124
lwrist 27.9226
lhand -16.2881 -34.0344
lfingers 7.12502
lthumb 9.92218 -4.28827
rfemur -7.08151 -23.7956 -4.17891
rtibia 60.848
rfoot -6.9294 -14.8445
rtoes 9.24115
lfemur -10.9618 23.7272 16.9209
ltibia 57.4615
lfoot -336.174 3.50722
ltoes 47.2307
596
root 6.00757 17.9754 12.5786 -0.0283273 1.34631 1.66741
lowerback 5.35519 1.49892 3.92376
upperback -4.83109 2.11931 -3.54408
thorax -7.83364 0.704471 -6.22869
lowerneck -6.37759 -2.46286 -3.45268
upperneck -4.14142 -2.94805 7.54397
head -0.0281272 -1.39977 2.94843
rclavicle -5.96354e-016 -1.59028e-015
rhumerus 25.1698 -21.1884 20.4017
rradius 43.0964
rwrist 34.4588
rhand -21.2679 -32.1996
rfingers 7.12502
rthumb 5.11564 297.882
lclavicle -5.96354e-016 -1.59028e-015
lhumerus 23.3144 -30.8022 -23.5632
lradius 124.995
lwrist 28.0462
lhand -16.3081 -33.8556
lfingers 7.12502
lthumb 9.90296 -4.10856
rfemur -7.86825 -24.5418 -4.75721
rtibia 61.1009
rfoot -8.31187 -15.6605
rtoes 8.51752
lfemur -12.2038 24.2199 16.1442
ltibia 58.8191
lfoot -336.656 1.42776
ltoes 46.6641
597
root 6.03978 17.9673 12.6407 0.0567927 1.08215 1.65723
lowerback 5.78016 1.93963 4.60397
upperback -4.68748 2.8003 -3.39626
thorax -7.81377 1.01005 -6.54917
lowerneck -5.9262 -2.82557 -3.31976
upperneck -3.7676 -3.4789 6.59551
head 0.0199845 -1.67357 2.59298
rclavicle 3.06625e-014 -9.54166e-015
rhumerus 33.781 -31.5583 11.8623
rradius 34.8393
rwrist 39.8789
rhand -13.8196 -32.3069
rfingers 7.12502
rthumb 12.303 298.075
lclavicle 3.06625e-014 -9.54166e-015
lhumerus 23.041 -28.2917 -24.5035
lradius 123.639
lwrist 27.5879
lhand -16.1007 -33.8666
lfingers 7.12502
lthumb 10.103 -4.12914
rfemur -8.72911 -25.3316 -5.29403
rtibia 61.2643
rfoot -9.43348 -16.1714
rtoes 7.30305
lfemur -13.4958 24.6944 15.3255
ltibia 60.2159
lfoot -337.178 -0.548078
ltoes 46.1915
598
root 6.0734 17.9501 12.7005 0.149265 0.796877 1.58989
lowerback 6.21367 2.39438 5.415
upperback -4.51383 3.52043 -3.22522
thorax -7.7428 1.33197 -6.92501
lowerneck -5.5438 -3.21571 -3.28698
upperneck -3.32256 -4.03799 5.63635
head 0.0989069 -1.95889 2.25694
rclavicle 4.62174e-015 -1.98785e-015
rhumerus 51.6303 -44.4438 -8.90971
rradius 27.8227
rwrist 51.3583
rhand -4.10358 -29.3855
rfingers 7.12502
rthumb 21.6545 301.805
lclavicle 4.62174e-015 -1.98785e-015
lhumerus 22.7938 -25.8844 -25.2515
lradius 122.048
lwrist 26.457
lhand -15.7233 -34.0721
lfingers 7.12502
lthumb 10.467 -4.35273
rfemur -9.64327 -26.1701 -5.75075
rtibia 61.3397
rfoot -10.2848 -16.3318
rtoes 5.59285
lfemur -14.8415 25.1512 14.4999
ltibia 61.6192
lfoot -337.77 -2.36498
ltoes 45.8102
599
root 6.1073 17.9247 12.7595 0.2508 0.52401 1.46626
lowerback 6.65636 2.8564 6.34473
upperback -4.30379 4.26976 -3.0367
thorax -7.61116 1.66778 -7.35239
lowerneck -5.28941 -3.62298 -3.3905
upperneck -2.79198 -4.60672 4.73834
head 0.225303 -2.24658 1.96762
rclavicle -2.68856e-014 2.74323e-014
rhumerus 93.1736 -49.0043 -57.8066
rradius 22.5092
rwrist 73.8283
rhand 5.30738 -21.0872
rfingers 7.12502
rthumb 30.6631 311.448
lclavicle -2.68856e-014 2.74323e-014
lhumerus 22.5872 -23.5529 -25.7987
lradius 120.257
lwrist 24.692
lhand -15.308 -34.3917
lfingers 7.12502
lthumb 10.8676 -4.69286
rfemur -10.587 -27.0681 -6.12365
rtibia 61.3335
rfoot -10.8962 -16.138
rtoes 3.53755
lfemur -16.2439 25.5767 13.6673
ltibia 62.9919
lfoot -338.416 -3.9854
ltoes 45.4757
